<mxfile host="app.diagrams.net" modified="2023-12-15T11:36:16.222Z" agent="Mozilla/5.0 (Windows NT 10.0; Win64; x64) AppleWebKit/537.36 (KHTML, like Gecko) Chrome/120.0.0.0 Safari/537.36" etag="n9UJX8nsToEiQSOLumRQ" version="22.1.9" type="github">
  <diagram name="Сторінка-1" id="RUg9XpDpjV_SuMjoqQRB">
    <mxGraphModel dx="1655" dy="905" grid="0" gridSize="10" guides="1" tooltips="1" connect="1" arrows="1" fold="1" page="1" pageScale="1" pageWidth="827" pageHeight="1169" math="0" shadow="0">
      <root>
        <mxCell id="0" />
        <mxCell id="1" parent="0" />
        <mxCell id="_YCX8DfOil9kb2Sd4Fa2-51" style="edgeStyle=orthogonalEdgeStyle;rounded=0;orthogonalLoop=1;jettySize=auto;html=1;exitX=0.5;exitY=1;exitDx=0;exitDy=0;entryX=0.5;entryY=0;entryDx=0;entryDy=0;" edge="1" parent="1" source="_YCX8DfOil9kb2Sd4Fa2-2" target="_YCX8DfOil9kb2Sd4Fa2-10">
          <mxGeometry relative="1" as="geometry" />
        </mxCell>
        <mxCell id="_YCX8DfOil9kb2Sd4Fa2-2" value="&lt;b&gt;&lt;font style=&quot;font-size: 14px;&quot;&gt;Start&lt;/font&gt;&lt;/b&gt;" style="ellipse;whiteSpace=wrap;html=1;fillColor=#fff2cc;strokeColor=#d6b656;" vertex="1" parent="1">
          <mxGeometry x="305" y="50" width="140" height="60" as="geometry" />
        </mxCell>
        <mxCell id="_YCX8DfOil9kb2Sd4Fa2-9" value="&lt;b&gt;&lt;font style=&quot;font-size: 14px;&quot;&gt;Finish&lt;/font&gt;&lt;/b&gt;" style="ellipse;whiteSpace=wrap;html=1;fillColor=#fff2cc;strokeColor=#d6b656;" vertex="1" parent="1">
          <mxGeometry x="50" y="870" width="140" height="60" as="geometry" />
        </mxCell>
        <mxCell id="_YCX8DfOil9kb2Sd4Fa2-52" style="edgeStyle=orthogonalEdgeStyle;rounded=0;orthogonalLoop=1;jettySize=auto;html=1;exitX=0.5;exitY=1;exitDx=0;exitDy=0;entryX=0.5;entryY=0;entryDx=0;entryDy=0;" edge="1" parent="1" source="_YCX8DfOil9kb2Sd4Fa2-10" target="_YCX8DfOil9kb2Sd4Fa2-11">
          <mxGeometry relative="1" as="geometry" />
        </mxCell>
        <mxCell id="_YCX8DfOil9kb2Sd4Fa2-10" value="&lt;b&gt;Output &quot;Введіть координати центру:&quot;&lt;/b&gt;" style="shape=parallelogram;perimeter=parallelogramPerimeter;whiteSpace=wrap;html=1;fixedSize=1;fillColor=#dae8fc;strokeColor=#6c8ebf;" vertex="1" parent="1">
          <mxGeometry x="283.5" y="140" width="183" height="60" as="geometry" />
        </mxCell>
        <mxCell id="_YCX8DfOil9kb2Sd4Fa2-53" style="edgeStyle=orthogonalEdgeStyle;rounded=0;orthogonalLoop=1;jettySize=auto;html=1;exitX=0.5;exitY=1;exitDx=0;exitDy=0;entryX=0.5;entryY=0;entryDx=0;entryDy=0;" edge="1" parent="1" source="_YCX8DfOil9kb2Sd4Fa2-11" target="_YCX8DfOil9kb2Sd4Fa2-13">
          <mxGeometry relative="1" as="geometry" />
        </mxCell>
        <mxCell id="_YCX8DfOil9kb2Sd4Fa2-11" value="&lt;b&gt;Input a, b&lt;/b&gt;" style="shape=parallelogram;perimeter=parallelogramPerimeter;whiteSpace=wrap;html=1;fixedSize=1;fillColor=#dae8fc;strokeColor=#6c8ebf;" vertex="1" parent="1">
          <mxGeometry x="283.5" y="220" width="183" height="60" as="geometry" />
        </mxCell>
        <mxCell id="_YCX8DfOil9kb2Sd4Fa2-54" style="edgeStyle=orthogonalEdgeStyle;rounded=0;orthogonalLoop=1;jettySize=auto;html=1;exitX=0.5;exitY=1;exitDx=0;exitDy=0;entryX=0.5;entryY=0;entryDx=0;entryDy=0;" edge="1" parent="1" source="_YCX8DfOil9kb2Sd4Fa2-13" target="_YCX8DfOil9kb2Sd4Fa2-14">
          <mxGeometry relative="1" as="geometry" />
        </mxCell>
        <mxCell id="_YCX8DfOil9kb2Sd4Fa2-13" value="&lt;b&gt;Output&amp;nbsp;&quot;Введіть довжину радіусу:&quot;&lt;/b&gt;" style="shape=parallelogram;perimeter=parallelogramPerimeter;whiteSpace=wrap;html=1;fixedSize=1;fillColor=#dae8fc;strokeColor=#6c8ebf;" vertex="1" parent="1">
          <mxGeometry x="283.5" y="300" width="183" height="60" as="geometry" />
        </mxCell>
        <mxCell id="_YCX8DfOil9kb2Sd4Fa2-55" style="edgeStyle=orthogonalEdgeStyle;rounded=0;orthogonalLoop=1;jettySize=auto;html=1;exitX=0.5;exitY=1;exitDx=0;exitDy=0;entryX=0.5;entryY=0;entryDx=0;entryDy=0;" edge="1" parent="1" source="_YCX8DfOil9kb2Sd4Fa2-14" target="_YCX8DfOil9kb2Sd4Fa2-16">
          <mxGeometry relative="1" as="geometry" />
        </mxCell>
        <mxCell id="_YCX8DfOil9kb2Sd4Fa2-14" value="&lt;b&gt;Input R&lt;/b&gt;" style="shape=parallelogram;perimeter=parallelogramPerimeter;whiteSpace=wrap;html=1;fixedSize=1;fillColor=#dae8fc;strokeColor=#6c8ebf;" vertex="1" parent="1">
          <mxGeometry x="283.5" y="380" width="183" height="60" as="geometry" />
        </mxCell>
        <mxCell id="_YCX8DfOil9kb2Sd4Fa2-16" value="&lt;b&gt;Output&amp;nbsp;&quot;Введіть координати п&#39;яти точок&quot;&lt;/b&gt;" style="shape=parallelogram;perimeter=parallelogramPerimeter;whiteSpace=wrap;html=1;fixedSize=1;fillColor=#dae8fc;strokeColor=#6c8ebf;" vertex="1" parent="1">
          <mxGeometry x="283.5" y="460" width="183" height="60" as="geometry" />
        </mxCell>
        <mxCell id="_YCX8DfOil9kb2Sd4Fa2-18" style="edgeStyle=orthogonalEdgeStyle;rounded=0;orthogonalLoop=1;jettySize=auto;html=1;exitX=0.5;exitY=1;exitDx=0;exitDy=0;entryX=0.5;entryY=0;entryDx=0;entryDy=0;" edge="1" parent="1" target="_YCX8DfOil9kb2Sd4Fa2-21">
          <mxGeometry relative="1" as="geometry">
            <mxPoint x="375" y="520" as="sourcePoint" />
          </mxGeometry>
        </mxCell>
        <mxCell id="_YCX8DfOil9kb2Sd4Fa2-19" style="edgeStyle=orthogonalEdgeStyle;rounded=0;orthogonalLoop=1;jettySize=auto;html=1;" edge="1" parent="1" source="_YCX8DfOil9kb2Sd4Fa2-21" target="_YCX8DfOil9kb2Sd4Fa2-23">
          <mxGeometry relative="1" as="geometry">
            <Array as="points">
              <mxPoint x="490" y="580" />
            </Array>
          </mxGeometry>
        </mxCell>
        <mxCell id="_YCX8DfOil9kb2Sd4Fa2-20" style="edgeStyle=orthogonalEdgeStyle;rounded=0;orthogonalLoop=1;jettySize=auto;html=1;exitX=0;exitY=0.5;exitDx=0;exitDy=0;entryX=0.5;entryY=0;entryDx=0;entryDy=0;" edge="1" parent="1">
          <mxGeometry relative="1" as="geometry">
            <mxPoint x="317.5" y="579.5" as="sourcePoint" />
            <mxPoint x="220" y="619.5" as="targetPoint" />
          </mxGeometry>
        </mxCell>
        <mxCell id="_YCX8DfOil9kb2Sd4Fa2-21" value="&lt;b&gt;i&amp;lt;5?&lt;/b&gt;" style="rhombus;whiteSpace=wrap;html=1;fillColor=#ffe6cc;strokeColor=#d79b00;" vertex="1" parent="1">
          <mxGeometry x="317.5" y="540" width="115" height="80" as="geometry" />
        </mxCell>
        <mxCell id="_YCX8DfOil9kb2Sd4Fa2-22" style="edgeStyle=orthogonalEdgeStyle;rounded=0;orthogonalLoop=1;jettySize=auto;html=1;exitX=1;exitY=0.5;exitDx=0;exitDy=0;entryX=0;entryY=0.5;entryDx=0;entryDy=0;" edge="1" parent="1" source="_YCX8DfOil9kb2Sd4Fa2-23" target="_YCX8DfOil9kb2Sd4Fa2-25">
          <mxGeometry relative="1" as="geometry" />
        </mxCell>
        <mxCell id="_YCX8DfOil9kb2Sd4Fa2-23" value="&lt;b&gt;Input x[i], y[i]&lt;/b&gt;" style="shape=parallelogram;perimeter=parallelogramPerimeter;whiteSpace=wrap;html=1;fixedSize=1;fillColor=#dae8fc;strokeColor=#6c8ebf;" vertex="1" parent="1">
          <mxGeometry x="420" y="620" width="140" height="50" as="geometry" />
        </mxCell>
        <mxCell id="_YCX8DfOil9kb2Sd4Fa2-24" style="edgeStyle=orthogonalEdgeStyle;rounded=0;orthogonalLoop=1;jettySize=auto;html=1;exitX=0.5;exitY=0;exitDx=0;exitDy=0;" edge="1" parent="1" source="_YCX8DfOil9kb2Sd4Fa2-25">
          <mxGeometry relative="1" as="geometry">
            <mxPoint x="380" y="530" as="targetPoint" />
            <Array as="points">
              <mxPoint x="650" y="530" />
            </Array>
          </mxGeometry>
        </mxCell>
        <mxCell id="_YCX8DfOil9kb2Sd4Fa2-25" value="&lt;b&gt;i++&lt;/b&gt;" style="rounded=0;whiteSpace=wrap;html=1;fillColor=#d5e8d4;strokeColor=#82b366;" vertex="1" parent="1">
          <mxGeometry x="590" y="620" width="120" height="50" as="geometry" />
        </mxCell>
        <mxCell id="_YCX8DfOil9kb2Sd4Fa2-27" value="YES" style="text;html=1;strokeColor=none;fillColor=none;align=center;verticalAlign=middle;whiteSpace=wrap;rounded=0;" vertex="1" parent="1">
          <mxGeometry x="430" y="560" width="60" height="30" as="geometry" />
        </mxCell>
        <mxCell id="_YCX8DfOil9kb2Sd4Fa2-28" value="NO" style="text;html=1;strokeColor=none;fillColor=none;align=center;verticalAlign=middle;whiteSpace=wrap;rounded=0;" vertex="1" parent="1">
          <mxGeometry x="245" y="560" width="60" height="30" as="geometry" />
        </mxCell>
        <mxCell id="_YCX8DfOil9kb2Sd4Fa2-29" value="&lt;b&gt;i = 0&lt;/b&gt;" style="rounded=0;whiteSpace=wrap;html=1;fillColor=#d5e8d4;strokeColor=#82b366;" vertex="1" parent="1">
          <mxGeometry x="163.5" y="620" width="120" height="50" as="geometry" />
        </mxCell>
        <mxCell id="_YCX8DfOil9kb2Sd4Fa2-30" style="edgeStyle=orthogonalEdgeStyle;rounded=0;orthogonalLoop=1;jettySize=auto;html=1;exitX=0.5;exitY=1;exitDx=0;exitDy=0;entryX=0.5;entryY=0;entryDx=0;entryDy=0;" edge="1" parent="1" target="_YCX8DfOil9kb2Sd4Fa2-33">
          <mxGeometry relative="1" as="geometry">
            <mxPoint x="215" y="670" as="sourcePoint" />
          </mxGeometry>
        </mxCell>
        <mxCell id="_YCX8DfOil9kb2Sd4Fa2-31" style="edgeStyle=orthogonalEdgeStyle;rounded=0;orthogonalLoop=1;jettySize=auto;html=1;" edge="1" parent="1" source="_YCX8DfOil9kb2Sd4Fa2-33">
          <mxGeometry relative="1" as="geometry">
            <Array as="points">
              <mxPoint x="330" y="730" />
            </Array>
            <mxPoint x="330" y="770" as="targetPoint" />
          </mxGeometry>
        </mxCell>
        <mxCell id="_YCX8DfOil9kb2Sd4Fa2-46" style="edgeStyle=orthogonalEdgeStyle;rounded=0;orthogonalLoop=1;jettySize=auto;html=1;exitX=0;exitY=0.5;exitDx=0;exitDy=0;" edge="1" parent="1" source="_YCX8DfOil9kb2Sd4Fa2-33">
          <mxGeometry relative="1" as="geometry">
            <mxPoint x="120" y="870" as="targetPoint" />
          </mxGeometry>
        </mxCell>
        <mxCell id="_YCX8DfOil9kb2Sd4Fa2-33" value="&lt;b&gt;i&amp;lt;5?&lt;/b&gt;" style="rhombus;whiteSpace=wrap;html=1;fillColor=#ffe6cc;strokeColor=#d79b00;" vertex="1" parent="1">
          <mxGeometry x="157.5" y="690" width="115" height="80" as="geometry" />
        </mxCell>
        <mxCell id="_YCX8DfOil9kb2Sd4Fa2-36" style="edgeStyle=orthogonalEdgeStyle;rounded=0;orthogonalLoop=1;jettySize=auto;html=1;exitX=0.5;exitY=0;exitDx=0;exitDy=0;" edge="1" parent="1">
          <mxGeometry relative="1" as="geometry">
            <mxPoint x="220" y="680" as="targetPoint" />
            <Array as="points">
              <mxPoint x="490" y="680" />
            </Array>
            <mxPoint x="490" y="770" as="sourcePoint" />
          </mxGeometry>
        </mxCell>
        <mxCell id="_YCX8DfOil9kb2Sd4Fa2-37" value="YES" style="text;html=1;strokeColor=none;fillColor=none;align=center;verticalAlign=middle;whiteSpace=wrap;rounded=0;" vertex="1" parent="1">
          <mxGeometry x="270" y="710" width="60" height="30" as="geometry" />
        </mxCell>
        <mxCell id="_YCX8DfOil9kb2Sd4Fa2-38" value="NO" style="text;html=1;strokeColor=none;fillColor=none;align=center;verticalAlign=middle;whiteSpace=wrap;rounded=0;" vertex="1" parent="1">
          <mxGeometry x="110" y="710" width="60" height="30" as="geometry" />
        </mxCell>
        <mxCell id="_YCX8DfOil9kb2Sd4Fa2-40" value="&lt;b&gt;i++&lt;/b&gt;" style="rounded=0;whiteSpace=wrap;html=1;fillColor=#d5e8d4;strokeColor=#82b366;" vertex="1" parent="1">
          <mxGeometry x="432.5" y="770" width="120" height="50" as="geometry" />
        </mxCell>
        <mxCell id="_YCX8DfOil9kb2Sd4Fa2-43" style="edgeStyle=orthogonalEdgeStyle;rounded=0;orthogonalLoop=1;jettySize=auto;html=1;exitX=0.5;exitY=1;exitDx=0;exitDy=0;entryX=0.5;entryY=0;entryDx=0;entryDy=0;" edge="1" parent="1" source="_YCX8DfOil9kb2Sd4Fa2-41" target="_YCX8DfOil9kb2Sd4Fa2-42">
          <mxGeometry relative="1" as="geometry" />
        </mxCell>
        <mxCell id="_YCX8DfOil9kb2Sd4Fa2-45" style="edgeStyle=orthogonalEdgeStyle;rounded=0;orthogonalLoop=1;jettySize=auto;html=1;exitX=0;exitY=0.5;exitDx=0;exitDy=0;entryX=0.5;entryY=0;entryDx=0;entryDy=0;" edge="1" parent="1" source="_YCX8DfOil9kb2Sd4Fa2-41" target="_YCX8DfOil9kb2Sd4Fa2-9">
          <mxGeometry relative="1" as="geometry" />
        </mxCell>
        <mxCell id="_YCX8DfOil9kb2Sd4Fa2-41" value="&lt;b&gt;pow(x[i] - a, 2) + pow(y[i] - b, 2) &amp;lt;= pow(R, 2)?&lt;/b&gt;" style="rhombus;whiteSpace=wrap;html=1;fillColor=#ffe6cc;strokeColor=#d79b00;" vertex="1" parent="1">
          <mxGeometry x="272.5" y="770" width="115" height="80" as="geometry" />
        </mxCell>
        <mxCell id="_YCX8DfOil9kb2Sd4Fa2-44" style="edgeStyle=orthogonalEdgeStyle;rounded=0;orthogonalLoop=1;jettySize=auto;html=1;exitX=0.5;exitY=1;exitDx=0;exitDy=0;entryX=0.5;entryY=1;entryDx=0;entryDy=0;" edge="1" parent="1" source="_YCX8DfOil9kb2Sd4Fa2-42" target="_YCX8DfOil9kb2Sd4Fa2-40">
          <mxGeometry relative="1" as="geometry" />
        </mxCell>
        <mxCell id="_YCX8DfOil9kb2Sd4Fa2-42" value="&lt;b&gt;Output&amp;nbsp;x[i], &quot;;&quot;,&amp;nbsp; y[i], &quot;потрапила в задане коло&quot;&lt;/b&gt;" style="shape=parallelogram;perimeter=parallelogramPerimeter;whiteSpace=wrap;html=1;fixedSize=1;fillColor=#dae8fc;strokeColor=#6c8ebf;" vertex="1" parent="1">
          <mxGeometry x="260" y="870" width="140" height="50" as="geometry" />
        </mxCell>
        <mxCell id="_YCX8DfOil9kb2Sd4Fa2-49" value="YES" style="text;html=1;strokeColor=none;fillColor=none;align=center;verticalAlign=middle;whiteSpace=wrap;rounded=0;" vertex="1" parent="1">
          <mxGeometry x="317.5" y="840" width="60" height="30" as="geometry" />
        </mxCell>
        <mxCell id="_YCX8DfOil9kb2Sd4Fa2-50" value="NO" style="text;html=1;strokeColor=none;fillColor=none;align=center;verticalAlign=middle;whiteSpace=wrap;rounded=0;" vertex="1" parent="1">
          <mxGeometry x="185" y="790" width="60" height="30" as="geometry" />
        </mxCell>
      </root>
    </mxGraphModel>
  </diagram>
</mxfile>
